<svg width="7" height="34" viewBox="0 0 7 34" fill="none" xmlns="http://www.w3.org/2000/svg">
<path d="M0.727273 3.61364C0.727273 2.77273 1.02841 2.05114 1.63068 1.44886C2.23295 0.846591 2.95455 0.545455 3.79545 0.545455C4.63636 0.545455 5.35795 0.846591 5.96023 1.44886C6.5625 2.05114 6.86364 2.77273 6.86364 3.61364C6.86364 4.45455 6.5625 5.17614 5.96023 5.77841C5.35795 6.38068 4.63636 6.68182 3.79545 6.68182C3.23864 6.68182 2.72727 6.53977 2.26136 6.25568C1.79545 5.98295 1.42045 5.61364 1.13636 5.14773C0.863636 4.69318 0.727273 4.18182 0.727273 3.61364ZM0.727273 16.8324C0.727273 15.9915 1.02841 15.2699 1.63068 14.6676C2.23295 14.0653 2.95455 13.7642 3.79545 13.7642C4.63636 13.7642 5.35795 14.0653 5.96023 14.6676C6.5625 15.2699 6.86364 15.9915 6.86364 16.8324C6.86364 17.6733 6.5625 18.3949 5.96023 18.9972C5.35795 19.5994 4.63636 19.9006 3.79545 19.9006C3.23864 19.9006 2.72727 19.7585 2.26136 19.4744C1.79545 19.2017 1.42045 18.8324 1.13636 18.3665C0.863636 17.9119 0.727273 17.4006 0.727273 16.8324ZM0.727273 30.0511C0.727273 29.2102 1.02841 28.4886 1.63068 27.8864C2.23295 27.2841 2.95455 26.983 3.79545 26.983C4.63636 26.983 5.35795 27.2841 5.96023 27.8864C6.5625 28.4886 6.86364 29.2102 6.86364 30.0511C6.86364 30.892 6.5625 31.6136 5.96023 32.2159C5.35795 32.8182 4.63636 33.1193 3.79545 33.1193C3.23864 33.1193 2.72727 32.9773 2.26136 32.6932C1.79545 32.4205 1.42045 32.0511 1.13636 31.5852C0.863636 31.1307 0.727273 30.6193 0.727273 30.0511Z" fill="#E06B1D"/>
</svg>
