<svg width="42" height="42" viewBox="0 0 42 42" fill="none" xmlns="http://www.w3.org/2000/svg">
<path d="M21 31.5L28 24.5L25.55 22.05L22.75 24.85V17.5H19.25V24.85L16.45 22.05L14 24.5L21 31.5ZM8.75 14V33.25H33.25V14H8.75ZM8.75 36.75C7.7875 36.75 6.96383 36.4076 6.279 35.7228C5.59417 35.0379 5.25117 34.2137 5.25 33.25V11.4188C5.25 11.0104 5.31592 10.6167 5.44775 10.2375C5.57958 9.85834 5.77617 9.50834 6.0375 9.18751L8.225 6.51876C8.54583 6.11043 8.94658 5.79659 9.42725 5.57726C9.90792 5.35793 10.4113 5.24884 10.9375 5.25001H31.0625C31.5875 5.25001 32.0909 5.35968 32.5728 5.57901C33.0546 5.79834 33.4553 6.11159 33.775 6.51876L35.9625 9.18751C36.225 9.50834 36.4222 9.85834 36.554 10.2375C36.6858 10.6167 36.7512 11.0104 36.75 11.4188V33.25C36.75 34.2125 36.4076 35.0368 35.7227 35.7228C35.0379 36.4088 34.2137 36.7512 33.25 36.75H8.75ZM9.45 10.5H32.55L31.0625 8.75001H10.9375L9.45 10.5Z" fill="#E06B1D"/>
</svg>
