<svg width="40" height="36" viewBox="0 0 40 36" fill="none" xmlns="http://www.w3.org/2000/svg">
<path d="M37.5 15.5H7.85L16.925 4.59999C17.3493 4.08945 17.5535 3.43124 17.4926 2.77018C17.4316 2.10911 17.1105 1.49933 16.6 1.07499C16.0895 0.650641 15.4313 0.446486 14.7702 0.507435C14.1091 0.568385 13.4993 0.889446 13.075 1.39999L0.575 16.4C0.48919 16.5182 0.413902 16.6437 0.35 16.775C0.35 16.9 0.35 16.975 0.175 17.1C0.0616841 17.3866 0.0023528 17.6918 0 18C0.0023528 18.3082 0.0616841 18.6133 0.175 18.9C0.175 19.025 0.175 19.1 0.35 19.225C0.413902 19.3563 0.48919 19.4818 0.575 19.6L13.075 34.6C13.3101 34.8822 13.6044 35.1091 13.9371 35.2647C14.2698 35.4202 14.6327 35.5006 15 35.5C15.5841 35.5011 16.1502 35.2977 16.6 34.925C16.8531 34.7151 17.0624 34.4574 17.2158 34.1665C17.3692 33.8756 17.4637 33.5574 17.4938 33.2299C17.524 32.9025 17.4893 32.5723 17.3917 32.2583C17.2941 31.9443 17.1355 31.6526 16.925 31.4L7.85 20.5H37.5C38.163 20.5 38.7989 20.2366 39.2678 19.7678C39.7366 19.2989 40 18.663 40 18C40 17.3369 39.7366 16.7011 39.2678 16.2322C38.7989 15.7634 38.163 15.5 37.5 15.5Z" fill="#E06B1D"/>
</svg>
