<svg width="137" height="58" viewBox="0 0 137 58" fill="none" xmlns="http://www.w3.org/2000/svg">
<rect y="0.421692" width="136.02" height="56.9277" rx="28.4639" fill="white"/>
<path d="M49.663 34.2574C50.833 33.8176 52.042 33.5977 53.329 33.5977C55.942 33.5977 58.2235 34.4373 60.1735 36.1165L54.0505 42.3934C52.0185 40.0477 50.52 37.2689 49.663 34.2574ZM75.442 24.6022C79.2835 27.5407 83.437 28.2604 87.883 26.7611C87.9415 27.1809 88 27.9405 88 29C88 31.059 87.5125 33.3578 86.596 35.8966C85.6795 38.4153 84.5485 40.4543 83.2225 41.9936L70.879 29.3798L75.442 24.6022ZM62.2015 38.2754C64.2685 41.3339 64.6975 44.6722 63.469 48.3104C60.7 47.4908 58.2235 46.2115 56.1565 44.4523L62.2015 38.2754ZM68.8705 31.4388L81.175 44.0925C76.9435 47.8906 71.971 49.4898 66.316 48.8701C66.7255 47.5508 66.94 46.1115 66.94 44.5523C66.94 43.3129 66.667 41.8536 66.121 40.1944C65.575 38.5353 64.9315 37.1759 64.21 36.1165L68.8705 31.4388ZM62.2795 33.9975C60.5022 32.3688 58.324 31.2697 55.981 30.8191C53.602 30.3593 51.3205 30.4993 49.117 31.2589C49.0585 30.8191 49 30.0595 49 29C49 26.941 49.4875 24.6422 50.404 22.1034C51.3205 19.5847 52.4515 17.5457 53.7775 16.0064L66.7645 29.3798L62.2795 33.9975ZM75.442 20.4642C72.829 17.1659 72.2245 13.5677 73.6285 9.68958C74.8375 10.0094 76.222 10.6091 77.782 11.5287C79.3225 12.4282 80.59 13.3278 81.565 14.1873L75.442 20.4642ZM87.337 23.7626C86.167 24.1824 84.958 24.4023 83.671 24.4023C81.5455 24.4023 79.498 23.7626 77.548 22.4433L83.5735 16.3463C85.2895 18.5452 86.5375 21.004 87.337 23.7626ZM68.8705 27.2209L55.825 13.9075C60.0565 10.1094 65.029 8.51016 70.7035 9.12985C70.2745 10.4492 70.06 11.8885 70.06 13.4477C70.06 14.887 70.372 16.5062 71.0155 18.3253C71.659 20.1244 72.4 21.5637 73.375 22.6232L68.8705 27.2209Z" fill="#E27A2B"/>
</svg>
