<svg width="60" height="60" viewBox="0 0 60 60" fill="none" xmlns="http://www.w3.org/2000/svg">
<circle cx="30" cy="30" r="30" fill="#E27A2B" fill-opacity="0.25"/>
<path d="M47.5 27.0031H17.85L26.925 16.1031C27.3493 15.5926 27.5535 14.9344 27.4926 14.2733C27.4316 13.6123 27.1105 13.0025 26.6 12.5781C26.0895 12.1538 25.4313 11.9496 24.7702 12.0106C24.1091 12.0715 23.4993 12.3926 23.075 12.9031L10.575 27.9031C10.4892 28.0213 10.4139 28.1468 10.35 28.2781C10.35 28.4031 10.35 28.4781 10.175 28.6031C10.0617 28.8898 10.0024 29.1949 10 29.5031C10.0024 29.8114 10.0617 30.1165 10.175 30.4031C10.175 30.5281 10.175 30.6031 10.35 30.7281C10.4139 30.8595 10.4892 30.9849 10.575 31.1031L23.075 46.1031C23.3101 46.3853 23.6044 46.6123 23.9371 46.7678C24.2698 46.9234 24.6327 47.0037 25 47.0031C25.5841 47.0043 26.1502 46.8008 26.6 46.4281C26.8531 46.2183 27.0624 45.9605 27.2158 45.6696C27.3692 45.3788 27.4637 45.0605 27.4938 44.7331C27.524 44.4056 27.4893 44.0754 27.3917 43.7614C27.2941 43.4474 27.1355 43.1558 26.925 42.9031L17.85 32.0031H47.5C48.163 32.0031 48.7989 31.7397 49.2678 31.2709C49.7366 30.8021 50 30.1662 50 29.5031C50 28.8401 49.7366 28.2042 49.2678 27.7354C48.7989 27.2665 48.163 27.0031 47.5 27.0031Z" fill="#E06B1D"/>
</svg>
