<svg width="137" height="58" viewBox="0 0 137 58" fill="none" xmlns="http://www.w3.org/2000/svg">
<rect x="0.489929" y="0.650635" width="136.02" height="56.9277" rx="28.4639" fill="white"/>
<path d="M51.5 14.25H89.5V38H51.5M89.5 42.75C90.7598 42.75 91.968 42.2496 92.8588 41.3588C93.7496 40.468 94.25 39.2598 94.25 38V14.25C94.25 12.9902 93.7496 11.782 92.8588 10.8912C91.968 10.0004 90.7598 9.5 89.5 9.5H51.5C48.8637 9.5 46.75 11.6137 46.75 14.25V38C46.75 39.2598 47.2504 40.468 48.1412 41.3588C49.032 42.2496 50.2402 42.75 51.5 42.75H42V47.5H99V42.75H89.5Z" fill="#E27A2B"/>
</svg>
