<svg width="42" height="42" viewBox="0 0 42 42" fill="none" xmlns="http://www.w3.org/2000/svg">
<path d="M12.25 12.25H10.5C9.57174 12.25 8.6815 12.6187 8.02513 13.2751C7.36875 13.9315 7 14.8217 7 15.75V31.5C7 32.4283 7.36875 33.3185 8.02513 33.9749C8.6815 34.6313 9.57174 35 10.5 35H26.25C27.1783 35 28.0685 34.6313 28.7249 33.9749C29.3813 33.3185 29.75 32.4283 29.75 31.5V29.75" stroke="#E06B1D" stroke-width="2" stroke-linecap="round" stroke-linejoin="round"/>
<path d="M28 8.74994L33.25 13.9999M35.6738 11.5237C36.363 10.8345 36.7502 9.89966 36.7502 8.92494C36.7502 7.95022 36.363 7.01542 35.6738 6.32619C34.9845 5.63696 34.0497 5.24976 33.075 5.24976C32.1003 5.24976 31.1655 5.63696 30.4763 6.32619L15.75 20.9999V26.2499H21L35.6738 11.5237Z" stroke="#E06B1D" stroke-width="2" stroke-linecap="round" stroke-linejoin="round"/>
</svg>
