<svg width="60" height="60" viewBox="0 0 60 60" fill="none" xmlns="http://www.w3.org/2000/svg">
<path d="M29.575 22.5L37.5 30.4V30C37.5 28.0109 36.7098 26.1032 35.3033 24.6967C33.8968 23.2902 31.9891 22.5 30 22.5H29.575ZM18.825 24.5L22.7 28.375C22.575 28.9 22.5 29.425 22.5 30C22.5 31.9891 23.2902 33.8968 24.6967 35.3033C26.1032 36.7098 28.0109 37.5 30 37.5C30.55 37.5 31.1 37.425 31.625 37.3L35.5 41.175C33.825 42 31.975 42.5 30 42.5C26.6848 42.5 23.5054 41.183 21.1612 38.8388C18.817 36.4946 17.5 33.3152 17.5 30C17.5 28.025 18 26.175 18.825 24.5ZM5 10.675L10.7 16.375L11.825 17.5C7.7 20.75 4.45 25 2.5 30C6.825 40.975 17.5 48.75 30 48.75C33.875 48.75 37.575 48 40.95 46.65L42.025 47.7L49.325 55L52.5 51.825L8.175 7.5M30 17.5C33.3152 17.5 36.4946 18.817 38.8388 21.1612C41.183 23.5054 42.5 26.6848 42.5 30C42.5 31.6 42.175 33.15 41.6 34.55L48.925 41.875C52.675 38.75 55.675 34.65 57.5 30C53.175 19.025 42.5 11.25 30 11.25C26.5 11.25 23.15 11.875 20 13L25.425 18.375C26.85 17.825 28.375 17.5 30 17.5Z" fill="white"/>
</svg>
