<svg width="137" height="58" viewBox="0 0 137 58" fill="none" xmlns="http://www.w3.org/2000/svg">
<rect x="0.979858" y="0.650635" width="136.02" height="56.9277" rx="28.4639" fill="white"/>
<path d="M80.25 10.2787C79.3542 10.2787 78.4583 10.5833 77.7238 11.3179L62.3333 26.7083L65.0208 29.3958L58.75 35.6667H55.1667L51.5833 42.8333L55.1667 46.4167L62.3333 42.8333V39.25L68.6042 32.9792L71.2917 35.6667L86.6821 20.2762C87.7929 18.6458 88.0796 16.6212 86.6821 15.2237L82.7763 11.3179C82.4466 10.9839 82.0529 10.7197 81.6189 10.5412C81.1849 10.3627 80.7193 10.2734 80.25 10.2787ZM80.25 14.1667L83.8333 17.75L71.2917 30.2917L67.7083 26.7083L80.25 14.1667Z" fill="#E27A2B"/>
</svg>
