<svg width="137" height="58" viewBox="0 0 137 58" fill="none" xmlns="http://www.w3.org/2000/svg">
<rect y="0.650635" width="136.02" height="56.9277" rx="28.4639" fill="white"/>
<path d="M60.169 8.162C60.3675 8.26041 60.5418 8.40157 60.6792 8.57534C60.8167 8.74911 60.9139 8.95117 60.964 9.167C61.018 9.404 62.5 15.746 62.5 20C62.5 22.85 61.174 25.391 59.11 27.038C58.36 27.638 58 28.292 58 28.838V30.296C58 30.366 58.004 30.432 58.012 30.494C58.114 31.238 58.483 34.001 58.828 36.866C59.167 39.677 59.5 42.743 59.5 44C59.5 45.5913 58.8679 47.1174 57.7426 48.2426C56.6174 49.3679 55.0913 50 53.5 50C51.9087 50 50.3826 49.3679 49.2574 48.2426C48.1321 47.1174 47.5 45.5913 47.5 44C47.5 42.74 47.833 39.68 48.172 36.866C48.517 34.001 48.886 31.238 48.988 30.494L49 30.296V28.838C49 28.292 48.64 27.638 47.89 27.038C46.8324 26.195 45.9785 25.1245 45.3916 23.906C44.8047 22.6875 44.4999 21.3524 44.5 20C44.5 15.761 45.97 9.452 46.036 9.17C46.114 8.83652 46.3027 8.53931 46.5713 8.32683C46.8399 8.11435 47.1725 7.99914 47.515 8C48.355 8 49.036 8.681 49.036 9.521V18.515C49.0242 18.7176 49.054 18.9205 49.1236 19.1111C49.1933 19.3017 49.3012 19.476 49.4408 19.6233C49.5805 19.7705 49.7488 19.8876 49.9354 19.9673C50.1221 20.047 50.3231 20.0876 50.526 20.0865C50.7289 20.0855 50.9295 20.0429 51.1153 19.9613C51.3011 19.8798 51.4683 19.761 51.6064 19.6123C51.7445 19.4636 51.8507 19.2882 51.9184 19.0969C51.9861 18.9056 52.0139 18.7025 52 18.5V9.5C52 9.10218 52.158 8.72065 52.4393 8.43934C52.7206 8.15804 53.1022 8 53.5 8C53.8978 8 54.2794 8.15804 54.5607 8.43934C54.842 8.72065 55 9.10218 55 9.5V18.578C55.0084 18.9719 55.1728 19.3462 55.4572 19.6188C55.7416 19.8914 56.1227 20.0399 56.5165 20.0315C56.9103 20.0231 57.2847 19.8587 57.5573 19.5743C57.8299 19.2899 57.9784 18.9089 57.97 18.515V9.515C57.97 8.678 58.648 8 59.488 8C59.554 8 59.848 8 60.169 8.162ZM67 21.5C67 17.9196 68.4223 14.4858 70.9541 11.9541C73.4858 9.42232 76.9196 8 80.5 8C80.8978 8 81.2794 8.15804 81.5607 8.43934C81.842 8.72065 82 9.10218 82 9.5V27.419L82.057 27.95C82.2956 30.189 82.5246 32.429 82.744 34.67C83.113 38.438 83.5 42.662 83.5 44C83.5 45.5913 82.8679 47.1174 81.7426 48.2426C80.6174 49.3679 79.0913 50 77.5 50C75.9087 50 74.3826 49.3679 73.2574 48.2426C72.1321 47.1174 71.5 45.5913 71.5 44C71.5 42.662 71.887 38.438 72.256 34.67C72.445 32.759 72.634 30.929 72.775 29.573L72.835 29H70C69.2044 29 68.4413 28.6839 67.8787 28.1213C67.3161 27.5587 67 26.7957 67 26V21.5Z" fill="#E27A2B"/>
</svg>
