<svg width="285" height="86" viewBox="0 0 285 86" fill="none" xmlns="http://www.w3.org/2000/svg">
<path d="M0.28 67V0.951998H21.016V51.832H44.44L43.48 67H0.28ZM76.048 67.768C70.608 67.768 65.808 66.712 61.648 64.6C57.488 62.488 54.224 59.576 51.856 55.864C49.552 52.088 48.4 47.768 48.4 42.904C48.4 37.912 49.584 33.592 51.952 29.944C54.384 26.232 57.68 23.352 61.84 21.304C66 19.256 70.768 18.232 76.144 18.232C81.648 18.232 86.48 19.288 90.64 21.4C94.8 23.448 98.032 26.328 100.336 30.04C102.64 33.688 103.792 37.976 103.792 42.904C103.792 47.832 102.608 52.184 100.24 55.96C97.936 59.672 94.704 62.584 90.544 64.696C86.384 66.744 81.552 67.768 76.048 67.768ZM76.24 53.368C78.864 53.368 81.008 52.408 82.672 50.488C84.4 48.504 85.264 45.976 85.264 42.904C85.264 39.832 84.432 37.336 82.768 35.416C81.104 33.432 78.992 32.44 76.432 32.44C73.68 32.44 71.44 33.432 69.712 35.416C68.048 37.336 67.216 39.832 67.216 42.904C67.216 45.976 68.048 48.504 69.712 50.488C71.44 52.408 73.616 53.368 76.24 53.368ZM139.596 85.72C137.164 85.72 134.892 85.56 132.78 85.24C130.668 84.92 129.004 84.536 127.788 84.088L129.324 70.168C130.476 70.424 131.724 70.616 133.068 70.744C134.412 70.936 135.724 71.032 137.004 71.032C141.292 71.032 144.364 70.136 146.22 68.344C148.14 66.552 149.1 63.8 149.1 60.088V55.576C147.308 59.096 145.1 61.688 142.476 63.352C139.852 65.016 136.556 65.848 132.588 65.848C128.044 65.848 123.948 64.824 120.299 62.776C116.652 60.664 113.772 57.816 111.66 54.232C109.612 50.584 108.588 46.424 108.588 41.752C108.588 37.08 109.612 32.984 111.66 29.464C113.772 25.944 116.652 23.192 120.299 21.208C123.948 19.224 128.044 18.232 132.588 18.232C135.788 18.232 138.86 19.096 141.804 20.824C144.748 22.488 146.988 25.208 148.524 28.984V18.904H168.684V55.768C168.684 66.008 166.156 73.56 161.1 78.424C156.044 83.288 148.876 85.72 139.596 85.72ZM138.828 50.68C141.58 50.68 143.884 49.816 145.74 48.088C147.596 46.36 148.524 44.28 148.524 41.848C148.524 39.416 147.596 37.4 145.74 35.8C143.884 34.2 141.58 33.4 138.828 33.4C135.884 33.4 133.451 34.232 131.531 35.896C129.676 37.56 128.748 39.608 128.748 42.04C128.748 44.408 129.676 46.456 131.531 48.184C133.451 49.848 135.884 50.68 138.828 50.68ZM196.686 67V0.951998H218.382V67H196.686ZM228.081 67V18.904H248.049V29.368C249.521 25.784 251.697 23.032 254.577 21.112C257.521 19.192 261.009 18.232 265.041 18.232C271.313 18.232 276.177 20.408 279.633 24.76C283.089 29.048 284.817 35.128 284.817 43V67H264.561V41.944C264.561 36.248 262.257 33.4 257.649 33.4C254.897 33.4 252.657 34.424 250.929 36.472C249.201 38.456 248.337 41.144 248.337 44.536V67H228.081Z" fill="#E06B1D"/>
</svg>
