<svg width="137" height="68" viewBox="0 0 137 68" fill="none" xmlns="http://www.w3.org/2000/svg">
<rect x="0.489929" y="5.42169" width="136.02" height="56.9277" rx="28.4639" fill="white"/>
<path d="M64.6666 42.5L78.5066 34L64.6666 25.5V42.5ZM95.4933 20.315C95.84 21.6467 96.08 23.4317 96.24 25.6983C96.4266 27.965 96.5066 29.92 96.5066 31.62L96.6666 34C96.6666 40.205 96.24 44.7667 95.4933 47.685C94.8266 50.235 93.28 51.8783 90.88 52.5867C89.6266 52.955 87.3333 53.21 83.8133 53.38C80.3466 53.5783 77.1733 53.6633 74.24 53.6633L70 53.8333C58.8266 53.8333 51.8666 53.38 49.12 52.5867C46.72 51.8783 45.1733 50.235 44.5066 47.685C44.16 46.3533 43.92 44.5683 43.76 42.3017C43.5733 40.035 43.4933 38.08 43.4933 36.38L43.3333 34C43.3333 27.795 43.76 23.2333 44.5066 20.315C45.1733 17.765 46.72 16.1217 49.12 15.4133C50.3733 15.045 52.6666 14.79 56.1866 14.62C59.6533 14.4217 62.8266 14.3367 65.76 14.3367L70 14.1667C81.1733 14.1667 88.1333 14.62 90.88 15.4133C93.28 16.1217 94.8266 17.765 95.4933 20.315Z" fill="#E27A2B"/>
</svg>
