<svg width="137" height="58" viewBox="0 0 137 58" fill="none" xmlns="http://www.w3.org/2000/svg">
<rect x="0.979858" y="0.421692" width="136.02" height="56.9277" rx="28.4639" fill="white"/>
<path fill-rule="evenodd" clip-rule="evenodd" d="M83.8333 16.1667V39.4583C83.8327 40.5992 83.4691 41.7103 82.7952 42.6308C82.1212 43.5513 81.1718 44.2335 80.0844 44.5786C78.997 44.9238 77.828 44.914 76.7465 44.5507C75.6651 44.1873 74.7273 43.4893 74.0688 42.5576C73.4104 41.6259 73.0655 40.5089 73.084 39.3682C73.1026 38.2275 73.4836 37.1223 74.1719 36.2125C74.8603 35.3027 75.8203 34.6355 76.913 34.3075C78.0057 33.9795 79.1744 34.0076 80.25 34.3879V19.75H65.9167V43.0417C65.9161 44.1825 65.5525 45.2936 64.8785 46.2141C64.2045 47.1346 63.2552 47.8168 62.1678 48.162C61.0804 48.5071 59.9113 48.4973 58.8299 48.134C57.7484 47.7707 56.8106 47.0726 56.1522 46.141C55.4937 45.2093 55.1488 44.0923 55.1674 42.9515C55.1859 41.8108 55.5669 40.7056 56.2553 39.7958C56.9436 38.886 57.9036 38.2188 58.9963 37.8908C60.089 37.5628 61.2577 37.591 62.3333 37.9713V16.1667C62.3333 15.2163 62.7109 14.3049 63.3829 13.6329C64.0549 12.9609 64.9663 12.5833 65.9167 12.5833H80.25C81.2003 12.5833 82.1118 12.9609 82.7838 13.6329C83.4558 14.3049 83.8333 15.2163 83.8333 16.1667Z" fill="#E27A2B"/>
</svg>
