<svg width="87" height="87" viewBox="0 0 87 87" fill="none" xmlns="http://www.w3.org/2000/svg">
<path fill-rule="evenodd" clip-rule="evenodd" d="M43.5 8.7C37.4133 8.69888 31.4328 10.2942 26.1553 13.3268C20.8779 16.3593 16.4881 20.723 13.4242 25.9823C10.3603 31.2416 8.72936 37.2126 8.69424 43.2992C8.65911 49.3858 10.221 55.3751 13.224 60.6694C15.2538 58.0315 17.863 55.8957 20.8499 54.4271C23.8369 52.9585 27.1216 52.1965 30.45 52.2H56.55C59.8784 52.1965 63.1631 52.9585 66.1501 54.4271C69.137 55.8957 71.7462 58.0315 73.776 60.6694C76.779 55.3751 78.3409 49.3858 78.3058 43.2992C78.2706 37.2126 76.6397 31.2416 73.5758 25.9823C70.5119 20.723 66.1221 16.3593 60.8447 13.3268C55.5672 10.2942 49.5867 8.69888 43.5 8.7ZM78.052 69.9306C78.5972 69.2201 79.1192 68.4922 79.618 67.7469C84.4406 60.5811 87.0112 52.1374 87 43.5C87 19.4749 67.525 0 43.5 0C19.475 0 4.46112e-05 19.4749 4.46112e-05 43.5C-0.0136636 53.0559 3.13221 62.3482 8.94799 69.9306L8.92624 70.0089L10.4705 71.8054C14.5503 76.5752 19.6159 80.4037 25.318 83.0269C31.0202 85.65 37.2234 87.0055 43.5 87C44.4396 87 45.3734 86.971 46.3014 86.913C54.1505 86.418 61.7164 83.7938 68.1862 79.3222C71.2804 77.1877 74.0849 74.661 76.5295 71.8054L78.0738 70.0089L78.052 69.9306ZM43.5 17.4C40.0389 17.4 36.7196 18.7749 34.2723 21.2223C31.8249 23.6696 30.45 26.9889 30.45 30.45C30.45 33.9111 31.8249 37.2304 34.2723 39.6777C36.7196 42.1251 40.0389 43.5 43.5 43.5C46.9611 43.5 50.2804 42.1251 52.7277 39.6777C55.1751 37.2304 56.55 33.9111 56.55 30.45C56.55 26.9889 55.1751 23.6696 52.7277 21.2223C50.2804 18.7749 46.9611 17.4 43.5 17.4Z" fill="#F8DECA"/>
</svg>
