<svg width="39" height="39" viewBox="0 0 39 39" fill="none" xmlns="http://www.w3.org/2000/svg">
<path d="M34.5561 33.6939L26.5276 25.6654C28.7778 23.1901 29.9706 19.9329 29.8512 16.5899C29.7317 13.2468 28.3096 10.0831 25.8886 7.77463C23.4675 5.4662 20.2397 4.1962 16.8947 4.23602C13.5498 4.27583 10.3531 5.62229 7.98769 7.98769C5.62229 10.3531 4.27583 13.5498 4.23602 16.8947C4.1962 20.2397 5.4662 23.4675 7.77463 25.8886C10.0831 28.3096 13.2468 29.7317 16.5899 29.8512C19.9329 29.9706 23.1901 28.7778 25.6654 26.5276L33.6939 34.5561C33.8082 34.6705 33.9633 34.7347 34.125 34.7347C34.2867 34.7347 34.4418 34.6705 34.5561 34.5561C34.6705 34.4418 34.7347 34.2867 34.7347 34.125C34.7347 33.9633 34.6705 33.8082 34.5561 33.6939ZM5.48437 17.0625C5.48437 14.7726 6.16342 12.5341 7.43564 10.63C8.70786 8.72602 10.5161 7.24203 12.6317 6.36571C14.7474 5.48939 17.0753 5.2601 19.3213 5.70684C21.5672 6.15359 23.6302 7.2563 25.2495 8.87553C26.8687 10.4948 27.9714 12.5578 28.4182 14.8037C28.8649 17.0497 28.6356 19.3776 27.7593 21.4933C26.883 23.6089 25.399 25.4171 23.495 26.6894C21.5909 27.9616 19.3524 28.6406 17.0625 28.6406C13.9928 28.6374 11.0497 27.4165 8.87909 25.2459C6.70847 23.0753 5.4876 20.1322 5.48437 17.0625Z" fill="black" fill-opacity="0.4"/>
</svg>
