<svg width="868" height="123" viewBox="0 0 868 123" fill="none" xmlns="http://www.w3.org/2000/svg">
<path d="M30.92 100.048C25.544 100.048 20.0827 99.3653 14.536 98C8.98933 96.72 4.296 94.9707 0.456 92.752L5.064 71.888C10.0133 74.5333 14.6213 76.2827 18.888 77.136C23.24 77.904 27.2507 78.288 30.92 78.288C34.3333 78.288 36.8933 77.7333 38.6 76.624C40.392 75.5147 41.288 74.0213 41.288 72.144C41.288 70.4373 40.3067 69.1147 38.344 68.176C36.3813 67.152 33.8213 66.2133 30.664 65.36C27.592 64.5067 24.3067 63.5253 20.808 62.416C17.3093 61.2213 13.9813 59.6853 10.824 57.808C7.752 55.8453 5.23467 53.2853 3.272 50.128C1.30933 46.8853 0.328 42.832 0.328 37.968C0.328 31.824 1.82133 26.5333 4.808 22.096C7.79467 17.5733 12.0613 14.1173 17.608 11.728C23.1547 9.25333 29.6827 8.016 37.192 8.016C42.2267 8.016 47.1333 8.69866 51.912 10.064C56.776 11.344 60.6587 13.0933 63.56 15.312L59.208 34.128C54.856 32.336 50.9307 31.056 47.432 30.288C44.0187 29.4347 40.776 29.008 37.704 29.008C34.12 29.008 31.3893 29.52 29.512 30.544C27.6347 31.568 26.696 32.9333 26.696 34.64C26.696 36.2613 27.6773 37.584 29.64 38.608C31.6027 39.632 34.12 40.6133 37.192 41.552C40.264 42.4907 43.5493 43.5573 47.048 44.752C50.5467 45.9467 53.832 47.5253 56.904 49.488C59.976 51.4507 62.4933 54.0107 64.456 57.168C66.4187 60.3253 67.4 64.2933 67.4 69.072C67.4 78.9707 64.1573 86.608 57.672 91.984C51.272 97.36 42.3547 100.048 30.92 100.048ZM102.533 98H75.525V13.648L102.533 9.67999V53.584L132.613 29.136L146.437 46.928L128.389 62.032C129.584 68.0907 131.333 72.3573 133.637 74.832C135.941 77.2213 138.928 78.416 142.597 78.416C144.133 78.416 145.968 78.16 148.101 77.648L146.181 98.256C144.56 98.5973 143.109 98.8107 141.829 98.896C140.549 98.9813 139.312 99.024 138.117 99.024C129.669 99.024 122.97 97.0187 118.021 93.008C113.157 88.912 109.573 82.9387 107.269 75.088L102.533 79.184V98ZM179.33 99.024C173.613 99.024 168.962 98 165.378 95.952C161.879 93.904 159.319 91.1307 157.698 87.632C156.077 84.1333 155.266 80.208 155.266 75.856V33.872H182.274V72.144C182.274 74.1067 182.829 75.6427 183.938 76.752C185.133 77.776 186.541 78.288 188.162 78.288C189.869 78.288 191.618 77.776 193.41 76.752L194.818 94.544C192.941 95.9947 190.509 97.104 187.522 97.872C184.535 98.64 181.805 99.024 179.33 99.024ZM168.834 26.832C164.909 26.832 161.538 25.5947 158.722 23.12C155.906 20.56 154.498 17.4453 154.498 13.776C154.498 11.216 155.181 8.99733 156.546 7.12C157.911 5.15733 159.703 3.62133 161.922 2.51199C164.141 1.40266 166.445 0.847992 168.834 0.847992C171.479 0.847992 173.869 1.44533 176.002 2.63999C178.221 3.83466 179.97 5.41333 181.25 7.376C182.615 9.33866 183.298 11.472 183.298 13.776C183.298 16.336 182.573 18.5973 181.122 20.56C179.757 22.5227 177.965 24.0587 175.746 25.168C173.613 26.2773 171.309 26.832 168.834 26.832ZM226.616 99.024C220.557 99.024 215.608 98 211.768 95.952C208.013 93.904 205.283 91.1307 203.576 87.632C201.869 84.1333 201.016 80.208 201.016 75.856V11.088L228.024 7.12V72.144C228.024 74.1067 228.664 75.6427 229.944 76.752C231.224 77.776 232.888 78.288 234.936 78.288C236.984 78.288 239.032 77.776 241.08 76.752L243 94.544C240.952 95.9947 238.349 97.104 235.192 97.872C232.035 98.64 229.176 99.024 226.616 99.024ZM274.616 99.024C268.557 99.024 263.608 98 259.768 95.952C256.013 93.904 253.283 91.1307 251.576 87.632C249.869 84.1333 249.016 80.208 249.016 75.856V11.088L276.024 7.12V72.144C276.024 74.1067 276.664 75.6427 277.944 76.752C279.224 77.776 280.888 78.288 282.936 78.288C284.984 78.288 287.032 77.776 289.08 76.752L291 94.544C288.952 95.9947 286.349 97.104 283.192 97.872C280.035 98.64 277.176 99.024 274.616 99.024ZM324.92 100.048C319.544 100.048 314.083 99.3653 308.536 98C302.989 96.72 298.296 94.9707 294.456 92.752L299.064 71.888C304.013 74.5333 308.621 76.2827 312.888 77.136C317.24 77.904 321.251 78.288 324.92 78.288C328.333 78.288 330.893 77.7333 332.6 76.624C334.392 75.5147 335.288 74.0213 335.288 72.144C335.288 70.4373 334.307 69.1147 332.344 68.176C330.381 67.152 327.821 66.2133 324.664 65.36C321.592 64.5067 318.307 63.5253 314.808 62.416C311.309 61.2213 307.981 59.6853 304.824 57.808C301.752 55.8453 299.235 53.2853 297.272 50.128C295.309 46.8853 294.328 42.832 294.328 37.968C294.328 31.824 295.821 26.5333 298.808 22.096C301.795 17.5733 306.061 14.1173 311.608 11.728C317.155 9.25333 323.683 8.016 331.192 8.016C336.227 8.016 341.133 8.69866 345.912 10.064C350.776 11.344 354.659 13.0933 357.56 15.312L353.208 34.128C348.856 32.336 344.931 31.056 341.432 30.288C338.019 29.4347 334.776 29.008 331.704 29.008C328.12 29.008 325.389 29.52 323.512 30.544C321.635 31.568 320.696 32.9333 320.696 34.64C320.696 36.2613 321.677 37.584 323.64 38.608C325.603 39.632 328.12 40.6133 331.192 41.552C334.264 42.4907 337.549 43.5573 341.048 44.752C344.547 45.9467 347.832 47.5253 350.904 49.488C353.976 51.4507 356.493 54.0107 358.456 57.168C360.419 60.3253 361.4 64.2933 361.4 69.072C361.4 78.9707 358.157 86.608 351.672 91.984C345.272 97.36 336.355 100.048 324.92 100.048ZM379.929 98L363.289 33.872H390.681L399.257 74.192L409.369 33.872H431.385L441.625 75.216L450.201 33.872H472.089L456.601 98H426.009L417.561 65.36L409.497 98H379.929ZM507.063 99.024C501.175 99.024 495.842 97.616 491.063 94.8C486.284 91.8987 482.487 87.9307 479.671 82.896C476.94 77.8613 475.575 72.1013 475.575 65.616C475.575 59.1307 476.94 53.456 479.671 48.592C482.487 43.728 486.284 39.9307 491.063 37.2C495.842 34.384 501.175 32.976 507.063 32.976C511.244 32.976 515.298 34.128 519.223 36.432C523.148 38.736 526.178 42.5333 528.311 47.824V33.872H554.935V98H528.055V86.096C526.007 90.2773 523.276 93.4773 519.863 95.696C516.45 97.9147 512.183 99.024 507.063 99.024ZM515.383 78.8C518.882 78.8 521.868 77.5627 524.343 75.088C526.818 72.528 528.055 69.4133 528.055 65.744C528.055 62.0747 526.818 59.088 524.343 56.784C521.868 54.3947 518.882 53.2 515.383 53.2C511.714 53.2 508.642 54.4373 506.167 56.912C503.692 59.3867 502.455 62.416 502.455 66C502.455 69.584 503.692 72.6133 506.167 75.088C508.642 77.5627 511.714 78.8 515.383 78.8ZM594.783 118.224L567.775 122.192V33.872H594.399V47.824C596.618 42.5333 599.647 38.736 603.487 36.432C607.412 34.128 611.466 32.976 615.647 32.976C621.62 32.976 626.954 34.384 631.647 37.2C636.426 39.9307 640.18 43.728 642.911 48.592C645.727 53.456 647.135 59.1307 647.135 65.616C647.135 72.1013 645.727 77.8613 642.911 82.896C640.18 87.9307 636.426 91.8987 631.647 94.8C626.954 97.616 621.62 99.024 615.647 99.024C610.527 99.024 606.26 97.9147 602.847 95.696C599.434 93.4773 596.746 90.2773 594.783 86.096V118.224ZM607.327 78.8C610.996 78.8 614.068 77.5627 616.543 75.088C619.018 72.6133 620.255 69.584 620.255 66C620.255 62.416 619.018 59.3867 616.543 56.912C614.068 54.4373 610.996 53.2 607.327 53.2C603.828 53.2 600.842 54.3947 598.367 56.784C595.892 59.088 594.655 62.0747 594.655 65.744C594.655 69.4133 595.892 72.528 598.367 75.088C600.842 77.5627 603.828 78.8 607.327 78.8ZM683.783 118.224L656.775 122.192V33.872H683.399V47.824C685.618 42.5333 688.647 38.736 692.487 36.432C696.412 34.128 700.466 32.976 704.647 32.976C710.62 32.976 715.954 34.384 720.647 37.2C725.426 39.9307 729.18 43.728 731.911 48.592C734.727 53.456 736.135 59.1307 736.135 65.616C736.135 72.1013 734.727 77.8613 731.911 82.896C729.18 87.9307 725.426 91.8987 720.647 94.8C715.954 97.616 710.62 99.024 704.647 99.024C699.527 99.024 695.26 97.9147 691.847 95.696C688.434 93.4773 685.746 90.2773 683.783 86.096V118.224ZM696.327 78.8C699.996 78.8 703.068 77.5627 705.543 75.088C708.018 72.6133 709.255 69.584 709.255 66C709.255 62.416 708.018 59.3867 705.543 56.912C703.068 54.4373 699.996 53.2 696.327 53.2C692.828 53.2 689.842 54.3947 687.367 56.784C684.892 59.088 683.655 62.0747 683.655 65.744C683.655 69.4133 684.892 72.528 687.367 75.088C689.842 77.5627 692.828 78.8 696.327 78.8ZM785.583 81.104C788.058 81.104 790.66 80.848 793.391 80.336C796.207 79.824 799.066 78.8853 801.967 77.52L805.039 94.032C801.882 95.6533 798.426 96.8907 794.671 97.744C791.002 98.5973 786.778 99.024 781.999 99.024C773.38 99.024 766.127 97.616 760.239 94.8C754.436 91.984 750.042 88.1013 747.055 83.152C744.068 78.2027 742.575 72.4853 742.575 66C742.575 59.344 744.154 53.5413 747.311 48.592C750.554 43.6427 754.863 39.8027 760.239 37.072C765.615 34.3413 771.546 32.976 778.031 32.976C787.674 32.976 795.055 36.0053 800.175 42.064C805.295 48.0373 807.855 56.5707 807.855 67.664L769.711 72.528C772.527 78.2453 777.818 81.104 785.583 81.104ZM767.663 60.752L787.759 56.528C787.418 53.7973 786.479 51.792 784.943 50.512C783.407 49.1467 781.487 48.464 779.183 48.464C775.77 48.464 773.039 49.6587 770.991 52.048C769.028 54.352 767.919 57.2533 767.663 60.752ZM816.775 98V33.872H843.399V49.872C845.106 44.0693 847.751 39.8027 851.335 37.072C855.004 34.3413 859.356 32.976 864.391 32.976L867.591 55.632C865.543 55.376 863.538 55.248 861.575 55.248C849.714 55.248 843.783 60.112 843.783 69.84V98H816.775Z" fill="#E06B1D"/>
</svg>
