<svg width="374" height="92" viewBox="0 0 374 92" fill="none" xmlns="http://www.w3.org/2000/svg">
<path d="M23.44 74.536C19.408 74.536 15.312 74.024 11.152 73C6.992 72.04 3.472 70.728 0.592 69.064L4.048 53.416C7.76 55.4 11.216 56.712 14.416 57.352C17.68 57.928 20.688 58.216 23.44 58.216C26 58.216 27.92 57.8 29.2 56.968C30.544 56.136 31.216 55.016 31.216 53.608C31.216 52.328 30.48 51.336 29.008 50.632C27.536 49.864 25.616 49.16 23.248 48.52C20.944 47.88 18.48 47.144 15.856 46.312C13.232 45.416 10.736 44.264 8.368 42.856C6.064 41.384 4.176 39.464 2.704 37.096C1.232 34.664 0.496 31.624 0.496 27.976C0.496 23.368 1.616 19.4 3.856 16.072C6.096 12.68 9.296 10.088 13.456 8.296C17.616 6.44 22.512 5.512 28.144 5.512C31.92 5.512 35.6 6.024 39.184 7.048C42.832 8.008 45.744 9.32 47.92 10.984L44.656 25.096C41.392 23.752 38.448 22.792 35.824 22.216C33.264 21.576 30.832 21.256 28.528 21.256C25.84 21.256 23.792 21.64 22.384 22.408C20.976 23.176 20.272 24.2 20.272 25.48C20.272 26.696 21.008 27.688 22.48 28.456C23.952 29.224 25.84 29.96 28.144 30.664C30.448 31.368 32.912 32.168 35.536 33.064C38.16 33.96 40.624 35.144 42.928 36.616C45.232 38.088 47.12 40.008 48.592 42.376C50.064 44.744 50.8 47.72 50.8 51.304C50.8 58.728 48.368 64.456 43.504 68.488C38.704 72.52 32.016 74.536 23.44 74.536ZM74.6538 73.768C70.3658 73.768 66.8778 73 64.1898 71.464C61.5658 69.928 59.6458 67.848 58.4297 65.224C57.2138 62.6 56.6058 59.656 56.6058 56.392V24.904H76.8618V53.608C76.8618 55.08 77.2778 56.232 78.1098 57.064C79.0058 57.832 80.0618 58.216 81.2778 58.216C82.5578 58.216 83.8698 57.832 85.2138 57.064L86.2698 70.408C84.8618 71.496 83.0378 72.328 80.7978 72.904C78.5578 73.48 76.5098 73.768 74.6538 73.768ZM66.7818 19.624C63.8378 19.624 61.3098 18.696 59.1978 16.84C57.0858 14.92 56.0298 12.584 56.0298 9.832C56.0298 7.912 56.5418 6.248 57.5658 4.84C58.5898 3.368 59.9338 2.216 61.5978 1.384C63.2618 0.551994 64.9898 0.135994 66.7818 0.135994C68.7658 0.135994 70.5578 0.583994 72.1578 1.47999C73.8218 2.376 75.1338 3.56 76.0938 5.032C77.1178 6.504 77.6298 8.10399 77.6298 9.832C77.6298 11.752 77.0858 13.448 75.9978 14.92C74.9738 16.392 73.6298 17.544 71.9658 18.376C70.3658 19.208 68.6378 19.624 66.7818 19.624ZM119.346 91.72C116.914 91.72 114.642 91.56 112.53 91.24C110.418 90.92 108.754 90.536 107.538 90.088L109.074 76.168C110.226 76.424 111.474 76.616 112.818 76.744C114.162 76.936 115.474 77.032 116.754 77.032C121.042 77.032 124.114 76.136 125.97 74.344C127.89 72.552 128.85 69.8 128.85 66.088V61.576C127.058 65.096 124.85 67.688 122.226 69.352C119.602 71.016 116.306 71.848 112.338 71.848C107.794 71.848 103.698 70.824 100.049 68.776C96.4015 66.664 93.5215 63.816 91.4095 60.232C89.3615 56.584 88.3375 52.424 88.3375 47.752C88.3375 43.08 89.3615 38.984 91.4095 35.464C93.5215 31.944 96.4015 29.192 100.049 27.208C103.698 25.224 107.794 24.232 112.338 24.232C115.538 24.232 118.61 25.096 121.554 26.824C124.498 28.488 126.738 31.208 128.274 34.984V24.904H148.434V61.768C148.434 72.008 145.906 79.56 140.85 84.424C135.794 89.288 128.626 91.72 119.346 91.72ZM118.578 56.68C121.33 56.68 123.634 55.816 125.49 54.088C127.346 52.36 128.274 50.28 128.274 47.848C128.274 45.416 127.346 43.4 125.49 41.8C123.634 40.2 121.33 39.4 118.578 39.4C115.634 39.4 113.201 40.232 111.281 41.896C109.426 43.56 108.498 45.608 108.498 48.04C108.498 50.408 109.426 52.456 111.281 54.184C113.201 55.848 115.634 56.68 118.578 56.68ZM158.05 73V24.904H178.018V35.368C179.49 31.784 181.666 29.032 184.546 27.112C187.49 25.192 190.978 24.232 195.01 24.232C201.282 24.232 206.146 26.408 209.602 30.76C213.058 35.048 214.786 41.128 214.786 49V73H194.53V47.944C194.53 42.248 192.226 39.4 187.618 39.4C184.866 39.4 182.626 40.424 180.898 42.472C179.17 44.456 178.306 47.144 178.306 50.536V73H158.05ZM273.161 74.536C266.761 74.536 261.129 73.384 256.265 71.08C251.401 68.776 247.625 65.48 244.937 61.192C242.249 56.84 240.905 51.656 240.905 45.64V6.952H262.217V44.68C262.217 48.968 263.241 52.136 265.289 54.184C267.401 56.168 270.153 57.16 273.545 57.16C277.129 57.16 279.849 56.136 281.705 54.088C283.625 52.04 284.585 49.224 284.585 45.64V6.952H306.185V45.64C306.185 51.336 304.777 56.36 301.961 60.712C299.145 65.064 295.241 68.456 290.249 70.888C285.321 73.32 279.625 74.536 273.161 74.536ZM334.4 88.168L314.144 91.144V24.904H334.112V35.368C335.776 31.4 338.048 28.552 340.928 26.824C343.872 25.096 346.912 24.232 350.048 24.232C354.528 24.232 358.528 25.288 362.048 27.4C365.632 29.448 368.448 32.296 370.496 35.944C372.608 39.592 373.664 43.848 373.664 48.712C373.664 53.576 372.608 57.896 370.496 61.672C368.448 65.448 365.632 68.424 362.048 70.6C358.528 72.712 354.528 73.768 350.048 73.768C346.208 73.768 343.008 72.936 340.448 71.272C337.888 69.608 335.872 67.208 334.4 64.072V88.168ZM343.808 58.6C346.56 58.6 348.864 57.672 350.72 55.816C352.576 53.96 353.504 51.688 353.504 49C353.504 46.312 352.576 44.04 350.72 42.184C348.864 40.328 346.56 39.4 343.808 39.4C341.184 39.4 338.944 40.296 337.088 42.088C335.232 43.816 334.304 46.056 334.304 48.808C334.304 51.56 335.232 53.896 337.088 55.816C338.944 57.672 341.184 58.6 343.808 58.6Z" fill="#E06B1D"/>
</svg>