<svg width="435" height="62" viewBox="0 0 435 62" fill="none" xmlns="http://www.w3.org/2000/svg">
<path d="M15.96 50.024C13.272 50.024 10.5413 49.6827 7.768 49C4.99467 48.36 2.648 47.4853 0.728 46.376L3.032 35.944C5.50667 37.2667 7.81067 38.1413 9.944 38.568C12.12 38.952 14.1253 39.144 15.96 39.144C17.6667 39.144 18.9467 38.8667 19.8 38.312C20.696 37.7573 21.144 37.0107 21.144 36.072C21.144 35.2187 20.6533 34.5573 19.672 34.088C18.6907 33.576 17.4107 33.1067 15.832 32.68C14.296 32.2533 12.6533 31.7627 10.904 31.208C9.15467 30.6107 7.49067 29.8427 5.912 28.904C4.376 27.9227 3.11733 26.6427 2.136 25.064C1.15467 23.4427 0.664 21.416 0.664 18.984C0.664 15.912 1.41067 13.2667 2.904 11.048C4.39733 8.78666 6.53067 7.05866 9.304 5.864C12.0773 4.62667 15.3413 4.008 19.096 4.008C21.6133 4.008 24.0667 4.34933 26.456 5.032C28.888 5.672 30.8293 6.54666 32.28 7.656L30.104 17.064C27.928 16.168 25.9653 15.528 24.216 15.144C22.5093 14.7173 20.888 14.504 19.352 14.504C17.56 14.504 16.1947 14.76 15.256 15.272C14.3173 15.784 13.848 16.4667 13.848 17.32C13.848 18.1307 14.3387 18.792 15.32 19.304C16.3013 19.816 17.56 20.3067 19.096 20.776C20.632 21.2453 22.2747 21.7787 24.024 22.376C25.7733 22.9733 27.416 23.7627 28.952 24.744C30.488 25.7253 31.7467 27.0053 32.728 28.584C33.7093 30.1627 34.2 32.1467 34.2 34.536C34.2 39.4853 32.5787 43.304 29.336 45.992C26.136 48.68 21.6773 50.024 15.96 50.024ZM51.7665 49H38.2625V6.824L51.7665 4.84V26.792L66.8065 14.568L73.7185 23.464L64.6945 31.016C65.2918 34.0453 66.1665 36.1787 67.3185 37.416C68.4705 38.6107 69.9638 39.208 71.7985 39.208C72.5665 39.208 73.4838 39.08 74.5505 38.824L73.5905 49.128C72.7798 49.2987 72.0545 49.4053 71.4145 49.448C70.7745 49.4907 70.1558 49.512 69.5585 49.512C65.3345 49.512 61.9852 48.5093 59.5105 46.504C57.0785 44.456 55.2865 41.4693 54.1345 37.544L51.7665 39.592V49ZM90.165 49.512C87.3063 49.512 84.981 49 83.189 47.976C81.4397 46.952 80.1597 45.5653 79.349 43.816C78.5383 42.0667 78.133 40.104 78.133 37.928V16.936H91.637V36.072C91.637 37.0533 91.9143 37.8213 92.469 38.376C93.0663 38.888 93.7703 39.144 94.581 39.144C95.4343 39.144 96.309 38.888 97.205 38.376L97.909 47.272C96.9703 47.9973 95.7543 48.552 94.261 48.936C92.7677 49.32 91.4023 49.512 90.165 49.512ZM84.917 13.416C82.9543 13.416 81.269 12.7973 79.861 11.56C78.453 10.28 77.749 8.72267 77.749 6.888C77.749 5.608 78.0903 4.49866 78.773 3.56C79.4557 2.57866 80.3517 1.81066 81.461 1.256C82.5703 0.70133 83.7223 0.423996 84.917 0.423996C86.2397 0.423996 87.4343 0.722663 88.501 1.32C89.6103 1.91733 90.485 2.70667 91.125 3.688C91.8077 4.66933 92.149 5.736 92.149 6.888C92.149 8.168 91.7863 9.29867 91.061 10.28C90.3783 11.2613 89.4823 12.0293 88.373 12.584C87.3063 13.1387 86.1543 13.416 84.917 13.416ZM113.808 49.512C110.779 49.512 108.304 49 106.384 47.976C104.507 46.952 103.141 45.5653 102.288 43.816C101.435 42.0667 101.008 40.104 101.008 37.928V5.544L114.512 3.56V36.072C114.512 37.0533 114.832 37.8213 115.472 38.376C116.112 38.888 116.944 39.144 117.968 39.144C118.992 39.144 120.016 38.888 121.04 38.376L122 47.272C120.976 47.9973 119.675 48.552 118.096 48.936C116.517 49.32 115.088 49.512 113.808 49.512ZM137.808 49.512C134.779 49.512 132.304 49 130.384 47.976C128.507 46.952 127.141 45.5653 126.288 43.816C125.435 42.0667 125.008 40.104 125.008 37.928V5.544L138.512 3.56V36.072C138.512 37.0533 138.832 37.8213 139.472 38.376C140.112 38.888 140.944 39.144 141.968 39.144C142.992 39.144 144.016 38.888 145.04 38.376L146 47.272C144.976 47.9973 143.675 48.552 142.096 48.936C140.517 49.32 139.088 49.512 137.808 49.512ZM162.96 50.024C160.272 50.024 157.541 49.6827 154.768 49C151.995 48.36 149.648 47.4853 147.728 46.376L150.032 35.944C152.507 37.2667 154.811 38.1413 156.944 38.568C159.12 38.952 161.125 39.144 162.96 39.144C164.667 39.144 165.947 38.8667 166.8 38.312C167.696 37.7573 168.144 37.0107 168.144 36.072C168.144 35.2187 167.653 34.5573 166.672 34.088C165.691 33.576 164.411 33.1067 162.832 32.68C161.296 32.2533 159.653 31.7627 157.904 31.208C156.155 30.6107 154.491 29.8427 152.912 28.904C151.376 27.9227 150.117 26.6427 149.136 25.064C148.155 23.4427 147.664 21.416 147.664 18.984C147.664 15.912 148.411 13.2667 149.904 11.048C151.397 8.78666 153.531 7.05866 156.304 5.864C159.077 4.62667 162.341 4.008 166.096 4.008C168.613 4.008 171.067 4.34933 173.456 5.032C175.888 5.672 177.829 6.54666 179.28 7.656L177.104 17.064C174.928 16.168 172.965 15.528 171.216 15.144C169.509 14.7173 167.888 14.504 166.352 14.504C164.56 14.504 163.195 14.76 162.256 15.272C161.317 15.784 160.848 16.4667 160.848 17.32C160.848 18.1307 161.339 18.792 162.32 19.304C163.301 19.816 164.56 20.3067 166.096 20.776C167.632 21.2453 169.275 21.7787 171.024 22.376C172.773 22.9733 174.416 23.7627 175.952 24.744C177.488 25.7253 178.747 27.0053 179.728 28.584C180.709 30.1627 181.2 32.1467 181.2 34.536C181.2 39.4853 179.579 43.304 176.336 45.992C173.136 48.68 168.677 50.024 162.96 50.024ZM190.465 49L182.145 16.936H195.841L200.128 37.096L205.185 16.936H216.193L221.312 37.608L225.601 16.936H236.545L228.801 49H213.505L209.281 32.68L205.249 49H190.465ZM254.032 49.512C251.088 49.512 248.421 48.808 246.032 47.4C243.642 45.9493 241.744 43.9653 240.336 41.448C238.97 38.9307 238.288 36.0507 238.288 32.808C238.288 29.5653 238.97 26.728 240.336 24.296C241.744 21.864 243.642 19.9653 246.032 18.6C248.421 17.192 251.088 16.488 254.032 16.488C256.122 16.488 258.149 17.064 260.112 18.216C262.074 19.368 263.589 21.2667 264.656 23.912V16.936H277.968V49H264.528V43.048C263.504 45.1387 262.138 46.7387 260.432 47.848C258.725 48.9573 256.592 49.512 254.032 49.512ZM258.192 39.4C259.941 39.4 261.434 38.7813 262.672 37.544C263.909 36.264 264.528 34.7067 264.528 32.872C264.528 31.0373 263.909 29.544 262.672 28.392C261.434 27.1973 259.941 26.6 258.192 26.6C256.357 26.6 254.821 27.2187 253.583 28.456C252.346 29.6933 251.728 31.208 251.728 33C251.728 34.792 252.346 36.3067 253.583 37.544C254.821 38.7813 256.357 39.4 258.192 39.4ZM297.892 59.112L284.388 61.096V16.936H297.7V23.912C298.809 21.2667 300.324 19.368 302.244 18.216C304.206 17.064 306.233 16.488 308.324 16.488C311.31 16.488 313.977 17.192 316.324 18.6C318.713 19.9653 320.59 21.864 321.956 24.296C323.364 26.728 324.068 29.5653 324.068 32.808C324.068 36.0507 323.364 38.9307 321.956 41.448C320.59 43.9653 318.713 45.9493 316.324 47.4C313.977 48.808 311.31 49.512 308.324 49.512C305.764 49.512 303.63 48.9573 301.924 47.848C300.217 46.7387 298.873 45.1387 297.892 43.048V59.112ZM304.164 39.4C305.998 39.4 307.534 38.7813 308.772 37.544C310.009 36.3067 310.628 34.792 310.628 33C310.628 31.208 310.009 29.6933 308.772 28.456C307.534 27.2187 305.998 26.6 304.164 26.6C302.414 26.6 300.921 27.1973 299.684 28.392C298.446 29.544 297.828 31.0373 297.828 32.872C297.828 34.7067 298.446 36.264 299.684 37.544C300.921 38.7813 302.414 39.4 304.164 39.4ZM342.392 59.112L328.888 61.096V16.936H342.2V23.912C343.309 21.2667 344.824 19.368 346.744 18.216C348.706 17.064 350.733 16.488 352.824 16.488C355.81 16.488 358.477 17.192 360.824 18.6C363.213 19.9653 365.09 21.864 366.456 24.296C367.864 26.728 368.568 29.5653 368.568 32.808C368.568 36.0507 367.864 38.9307 366.456 41.448C365.09 43.9653 363.213 45.9493 360.824 47.4C358.477 48.808 355.81 49.512 352.824 49.512C350.264 49.512 348.13 48.9573 346.424 47.848C344.717 46.7387 343.373 45.1387 342.392 43.048V59.112ZM348.664 39.4C350.498 39.4 352.034 38.7813 353.272 37.544C354.509 36.3067 355.128 34.792 355.128 33C355.128 31.208 354.509 29.6933 353.272 28.456C352.034 27.2187 350.498 26.6 348.664 26.6C346.914 26.6 345.421 27.1973 344.184 28.392C342.946 29.544 342.328 31.0373 342.328 32.872C342.328 34.7067 342.946 36.264 344.184 37.544C345.421 38.7813 346.914 39.4 348.664 39.4ZM393.292 40.552C394.529 40.552 395.83 40.424 397.196 40.168C398.604 39.912 400.033 39.4427 401.484 38.76L403.02 47.016C401.441 47.8267 399.713 48.4453 397.836 48.872C396.001 49.2987 393.889 49.512 391.5 49.512C387.19 49.512 383.564 48.808 380.62 47.4C377.718 45.992 375.521 44.0507 374.028 41.576C372.534 39.1013 371.788 36.2427 371.788 33C371.788 29.672 372.577 26.7707 374.156 24.296C375.777 21.8213 377.932 19.9013 380.62 18.536C383.308 17.1707 386.273 16.488 389.516 16.488C394.337 16.488 398.028 18.0027 400.588 21.032C403.148 24.0187 404.428 28.2853 404.428 33.832L385.356 36.264C386.764 39.1227 389.409 40.552 393.292 40.552ZM384.332 30.376L394.38 28.264C394.209 26.8987 393.74 25.896 392.972 25.256C392.204 24.5733 391.244 24.232 390.092 24.232C388.385 24.232 387.02 24.8293 385.996 26.024C385.014 27.176 384.46 28.6267 384.332 30.376ZM408.888 49V16.936H422.2V24.936C423.053 22.0347 424.376 19.9013 426.168 18.536C428.002 17.1707 430.178 16.488 432.696 16.488L434.296 27.816C433.272 27.688 432.269 27.624 431.288 27.624C425.357 27.624 422.392 30.056 422.392 34.92V49H408.888Z" fill="#E06B1D"/>
</svg>
