<svg width="58" height="58" viewBox="0 0 58 58" fill="none" xmlns="http://www.w3.org/2000/svg">
<g clip-path="url(#clip0_201_449)">
<path fill-rule="evenodd" clip-rule="evenodd" d="M31.9 14.5001C28.5185 14.4995 25.196 15.3858 22.2641 17.0705C19.3322 18.7553 16.8934 21.1796 15.1912 24.1014C13.4891 27.0232 12.583 30.3404 12.5635 33.7218C12.544 37.1033 13.4117 40.4307 15.08 43.372C16.2077 41.9065 17.6572 40.7199 19.3167 39.904C20.9761 39.0882 22.8009 38.6648 24.65 38.6667H39.15C40.9992 38.6648 42.824 39.0882 44.4834 39.904C46.1428 40.7199 47.5924 41.9065 48.72 43.372C50.3884 40.4307 51.2561 37.1033 51.2366 33.7218C51.2171 30.3404 50.311 27.0232 48.6088 24.1014C46.9066 21.1796 44.4679 18.7553 41.536 17.0705C38.6041 15.3858 35.2815 14.4995 31.9 14.5001ZM51.0956 48.5171C51.3985 48.1224 51.6885 47.718 51.9656 47.3039C54.6448 43.3229 56.073 38.632 56.0667 33.8334C56.0667 20.4862 45.2473 9.66675 31.9 9.66675C18.5528 9.66675 7.73336 20.4862 7.73336 33.8334C7.72575 39.1422 9.47346 44.3047 12.7044 48.5171L12.6924 48.5606L13.5503 49.5587C15.8168 52.2086 18.631 54.3355 21.7989 55.7928C24.9668 57.2501 28.413 58.0032 31.9 58.0001C32.422 58.0001 32.9408 57.984 33.4564 57.9517C37.817 57.6768 42.0203 56.2189 45.6146 53.7347C47.3336 52.5488 48.8916 51.1451 50.2498 49.5587L51.1077 48.5606L51.0956 48.5171ZM31.9 19.3334C29.9772 19.3334 28.1331 20.0973 26.7735 21.4569C25.4139 22.8165 24.65 24.6606 24.65 26.5834C24.65 28.5062 25.4139 30.3503 26.7735 31.7099C28.1331 33.0696 29.9772 33.8334 31.9 33.8334C33.8228 33.8334 35.6669 33.0696 37.0266 31.7099C38.3862 30.3503 39.15 28.5062 39.15 26.5834C39.15 24.6606 38.3862 22.8165 37.0266 21.4569C35.6669 20.0973 33.8228 19.3334 31.9 19.3334Z" fill="#E06B1D"/>
</g>
<defs>
<clipPath id="clip0_201_449">
<rect width="58" height="58" fill="white"/>
</clipPath>
</defs>
</svg>