<svg width="46" height="46" viewBox="0 0 46 46" fill="none" xmlns="http://www.w3.org/2000/svg">
<path fill-rule="evenodd" clip-rule="evenodd" d="M23.0002 7.66665C20.3183 7.66615 17.6832 8.36908 15.3579 9.70527C13.0326 11.0415 11.0984 12.9642 9.74838 15.2815C8.39837 17.5988 7.67977 20.2297 7.66429 22.9115C7.64882 25.5933 8.33701 28.2323 9.66018 30.5651C10.5545 29.4028 11.7042 28.4617 13.0203 27.8146C14.3364 27.1675 15.7836 26.8318 17.2502 26.8333H28.7502C30.2167 26.8318 31.664 27.1675 32.9801 27.8146C34.2962 28.4617 35.4458 29.4028 36.3402 30.5651C37.6633 28.2323 38.3515 25.5933 38.3361 22.9115C38.3206 20.2297 37.602 17.5988 36.252 15.2815C34.902 12.9642 32.9678 11.0415 30.6425 9.70527C28.3172 8.36908 25.6821 7.66615 23.0002 7.66665ZM38.2243 34.6456C38.4645 34.3326 38.6945 34.0119 38.9143 33.6835C41.0391 30.5261 42.1718 26.8057 42.1668 23C42.1668 12.4142 33.5859 3.83331 23.0002 3.83331C12.4144 3.83331 3.83352 12.4142 3.83352 23C3.82748 27.2104 5.21359 31.3048 7.7761 34.6456L7.76652 34.6801L8.44693 35.4717C10.2445 37.5734 12.4765 39.2602 14.989 40.416C17.5014 41.5718 20.2346 42.1691 23.0002 42.1666C23.4142 42.1666 23.8256 42.1539 24.2345 42.1283C27.6929 41.9102 31.0266 40.754 33.8773 38.7837C35.2406 37.8432 36.4763 36.7299 37.5534 35.4717L38.2338 34.6801L38.2243 34.6456ZM23.0002 11.5C21.4752 11.5 20.0127 12.1058 18.9343 13.1841C17.856 14.2624 17.2502 15.725 17.2502 17.25C17.2502 18.775 17.856 20.2375 18.9343 21.3158C20.0127 22.3942 21.4752 23 23.0002 23C24.5252 23 25.9877 22.3942 27.066 21.3158C28.1444 20.2375 28.7502 18.775 28.7502 17.25C28.7502 15.725 28.1444 14.2624 27.066 13.1841C25.9877 12.1058 24.5252 11.5 23.0002 11.5Z" fill="black" fill-opacity="0.25"/>
</svg>
