<svg width="60" height="60" viewBox="0 0 60 60" fill="none" xmlns="http://www.w3.org/2000/svg">
<path fill-rule="evenodd" clip-rule="evenodd" d="M30 10C26.5019 9.99936 23.0648 10.9162 20.0318 12.6591C16.9988 14.4019 14.4759 16.9098 12.7151 19.9324C10.9542 22.955 10.0169 26.3865 9.99669 29.8846C9.97651 33.3826 10.8741 36.8248 12.6 39.8675C13.7666 38.3514 15.2661 37.124 16.9827 36.2799C18.6994 35.4359 20.5871 34.998 22.5 35H37.5C39.4129 34.998 41.3007 35.4359 43.0173 36.2799C44.734 37.124 46.2335 38.3514 47.4 39.8675C49.1259 36.8248 50.0235 33.3826 50.0034 29.8846C49.9832 26.3865 49.0459 22.955 47.285 19.9324C45.5241 16.9098 43.0013 14.4019 39.9682 12.6591C36.9352 10.9162 33.4981 9.99936 30 10ZM49.8575 45.19C50.1709 44.7817 50.4709 44.3633 50.7575 43.935C53.5291 39.8167 55.0065 34.964 55 30C55 16.1925 43.8075 5 30 5C16.1925 5 5.00003 16.1925 5.00003 30C4.99215 35.4919 6.80012 40.8323 10.1425 45.19L10.13 45.235L11.0175 46.2675C13.3622 49.0088 16.2735 51.209 19.5506 52.7166C22.8277 54.2242 26.3928 55.0032 30 55C30.54 55 31.0767 54.9833 31.61 54.95C36.121 54.6655 40.4692 53.1574 44.1875 50.5875C45.9658 49.3607 47.5776 47.9086 48.9825 46.2675L49.87 45.235L49.8575 45.19ZM30 15C28.0109 15 26.1032 15.7902 24.6967 17.1967C23.2902 18.6032 22.5 20.5109 22.5 22.5C22.5 24.4891 23.2902 26.3968 24.6967 27.8033C26.1032 29.2098 28.0109 30 30 30C31.9891 30 33.8968 29.2098 35.3033 27.8033C36.7099 26.3968 37.5 24.4891 37.5 22.5C37.5 20.5109 36.7099 18.6032 35.3033 17.1967C33.8968 15.7902 31.9891 15 30 15Z" fill="#E27A2B"/>
</svg>
