<svg width="46" height="46" viewBox="0 0 46 46" fill="none" xmlns="http://www.w3.org/2000/svg">
<g clip-path="url(#clip0_264_51)">
<path fill-rule="evenodd" clip-rule="evenodd" d="M25.3 11.5C22.6181 11.4995 19.983 12.2024 17.6577 13.5386C15.3324 14.8748 13.3982 16.7975 12.0482 19.1148C10.6982 21.4321 9.97957 24.063 9.9641 26.7448C9.94862 29.4266 10.6368 32.0656 11.96 34.3984C12.8543 33.2361 14.004 32.295 15.3201 31.6479C16.6362 31.0008 18.0834 30.6651 19.55 30.6666H31.05C32.5165 30.6651 33.9638 31.0008 35.2799 31.6479C36.596 32.295 37.7456 33.2361 38.64 34.3984C39.9632 32.0656 40.6513 29.4266 40.6359 26.7448C40.6204 24.063 39.9018 21.4321 38.5518 19.1148C37.2018 16.7975 35.2676 14.8748 32.9423 13.5386C30.617 12.2024 27.9819 11.4995 25.3 11.5ZM40.5241 38.479C40.7643 38.1659 40.9943 37.8452 41.2141 37.5168C43.339 34.3595 44.4716 30.6391 44.4667 26.8333C44.4667 16.2475 35.8857 7.66663 25.3 7.66663C14.7142 7.66663 6.13332 16.2475 6.13332 26.8333C6.12728 31.0437 7.5134 35.1381 10.0759 38.479L10.0663 38.5135L10.7467 39.305C12.5444 41.4067 14.7763 43.0935 17.2888 44.2494C19.8012 45.4052 22.5344 46.0024 25.3 46C25.714 46 26.1254 45.9872 26.5343 45.9616C29.9927 45.7435 33.3264 44.5873 36.1771 42.617C37.5404 41.6765 38.7761 40.5632 39.8532 39.305L40.5337 38.5135L40.5241 38.479ZM25.3 15.3333C23.775 15.3333 22.3125 15.9391 21.2341 17.0174C20.1558 18.0958 19.55 19.5583 19.55 21.0833C19.55 22.6083 20.1558 24.0708 21.2341 25.1492C22.3125 26.2275 23.775 26.8333 25.3 26.8333C26.825 26.8333 28.2875 26.2275 29.3659 25.1492C30.4442 24.0708 31.05 22.6083 31.05 21.0833C31.05 19.5583 30.4442 18.0958 29.3659 17.0174C28.2875 15.9391 26.825 15.3333 25.3 15.3333Z" fill="black" fill-opacity="0.25"/>
</g>
<defs>
<clipPath id="clip0_264_51">
<rect width="46" height="46" fill="white"/>
</clipPath>
</defs>
</svg>
